<?xml version="1.0" encoding="UTF-8" standalone="no"?>
<!-- Created with Inkscape (http://www.inkscape.org/) -->

<svg
   version="1.1"
   id="svg1"
   width="305.60001"
   height="425.60001"
   viewBox="0 0 305.60001 425.60001"
   sodipodi:docname="fm svg logo (rev0).svg"
   inkscape:version="1.4 (86a8ad7, 2024-10-11)"
   inkscape:export-filename="fm svg logo (rev0).png"
   inkscape:export-xdpi="96"
   inkscape:export-ydpi="96"
   xmlns:inkscape="http://www.inkscape.org/namespaces/inkscape"
   xmlns:sodipodi="http://sodipodi.sourceforge.net/DTD/sodipodi-0.dtd"
   xmlns:xlink="http://www.w3.org/1999/xlink"
   xmlns="http://www.w3.org/2000/svg"
   xmlns:svg="http://www.w3.org/2000/svg">
  <defs
     id="defs1">
    <linearGradient
       id="linearGradient1964"
       inkscape:collect="always">
      <stop
         style="stop-color:#fcaf17;stop-opacity:1;"
         offset="0.17509136"
         id="stop1964" />
      <stop
         style="stop-color:#fcaf17;stop-opacity:0;"
         offset="1"
         id="stop1965" />
    </linearGradient>
    <radialGradient
       inkscape:collect="always"
       xlink:href="#linearGradient1964"
       id="radialGradient1965"
       cx="153.00183"
       cy="142.23092"
       fx="153.00183"
       fy="142.23092"
       r="142.43303"
       gradientTransform="matrix(1,0,0,0.9986157,0,0.1968896)"
       gradientUnits="userSpaceOnUse" />
  </defs>
  <sodipodi:namedview
     id="namedview1"
     pagecolor="#ffffff"
     bordercolor="#000000"
     borderopacity="0.25"
     inkscape:showpageshadow="2"
     inkscape:pageopacity="0.0"
     inkscape:pagecheckerboard="0"
     inkscape:deskcolor="#d1d1d1"
     inkscape:zoom="4.8825187"
     inkscape:cx="243.82907"
     inkscape:cy="139.682"
     inkscape:window-width="3006"
     inkscape:window-height="2382"
     inkscape:window-x="6710"
     inkscape:window-y="0"
     inkscape:window-maximized="0"
     inkscape:current-layer="svg1"
     showguides="false"
     inkscape:export-bgcolor="#ffffff00">
    <sodipodi:guide
       position="227.75001,283.00001"
       orientation="0,1"
       id="guide129"
       inkscape:locked="false"
       inkscape:label=""
       inkscape:color="rgb(0,134,229)" />
    <sodipodi:guide
       position="153,282.22501"
       orientation="-1,0"
       id="guide130"
       inkscape:locked="false"
       inkscape:label=""
       inkscape:color="rgb(0,134,229)" />
    <sodipodi:guide
       position="162.88,360.96001"
       orientation="-4.507188,1.40906"
       id="guide1917"
       inkscape:locked="false" />
    <sodipodi:guide
       position="175.12109,360.82267"
       orientation="-4.160156,0.41797"
       id="guide1918"
       inkscape:locked="false" />
    <sodipodi:guide
       position="180.92436,418.67888"
       orientation="7.6735667,-1.57957"
       id="guide1919"
       inkscape:locked="false" />
    <sodipodi:guide
       position="130.55682,351.29376"
       orientation="-3.906253,-2.07682"
       id="guide1921"
       inkscape:locked="false" />
    <sodipodi:guide
       position="111.92,365.76001"
       orientation="19.928948,6.10634"
       id="guide1924"
       inkscape:locked="false" />
  </sodipodi:namedview>
  <g
     inkscape:groupmode="layer"
     id="layer2"
     inkscape:label="BACKGROUND"
     style="display:inline"
     sodipodi:insensitive="true">
    <path
       id="path1928"
       style="display:inline;opacity:1;fill:url(#radialGradient1965);fill-opacity:1;stroke:none;stroke-width:0.1;stroke-opacity:1"
       inkscape:transform-center-x="-0.27682411"
       inkscape:transform-center-y="-71.292341"
       d="M 153,0 146.05469,72.802734 124.32812,2.9121094 132.16406,75.625 96.826172,11.53125 119.12109,81.175781 71.621094,25.501953 107.46484,89.246094 49.738281,44.257812 97.667969,99.492188 32.074219,67.029297 90.132812,111.49805 19.349609,92.888672 l 65.814453,31.884768 -73.078124,-3.9961 70.878906,18 -72.388672,10.7793 73.146484,3.38477 -68.818359,25.18359 72.326172,-11.42969 -62.328125,38.53907 68.539062,-25.7754 -53.28125,50.3125 61.937504,-39.06445 -42.044926,60.02149 52.787106,-50.74805 -29.080074,67.26562 41.474614,-60.3457 -14.92383,71.74414 28.45703,-67.4668 -0.1543,73.2793 14.27149,-71.82031 14.62304,71.80859 -0.49804,-73.2207 28.79492,67.38281 -15.24805,-71.61914 41.78906,60.19727 -29.375,-67.07422 53.06836,50.53711 -42.29297,-59.77539 62.16602,38.80078 -53.47461,-50.02149 68.71094,25.47071 -62.46094,-38.21485 72.43555,11.09766 -68.73633,-24.78711 73.03516,-3.66016 -0.63672,-0.0918 0.64257,-0.0332 -72.23046,-10.4082 70.71484,-18.24609 -73.00781,4.27343 65.74414,-32.164058 -70.65235,18.865238 57.92774,-44.72266 -65.41992,32.689453 47.75781,-55.462891 -57.51172,45.175782 35.62891,-63.929688 -47.25,55.814453 22.04492,-69.787109 -35.06445,64.179688 7.5625,-72.7988286 -21.44141,69.9179686 z"
       inkscape:label="Sun"
       sodipodi:insensitive="true" />
    <rect
       style="display:inline;fill:#4a77bb;fill-opacity:1;stroke-width:0"
       id="rect32"
       width="305.60001"
       height="96.960037"
       x="0"
       y="328.64001"
       inkscape:label="BLUE"
       sodipodi:insensitive="true" />
    <path
       style="fill:#000000"
       d="m 0,253.6 v -75.04 h 3.3086353 c 3.2639147,0 3.3138282,-0.0114 3.6928389,-0.84323 0.3134754,-0.68801 3.5603438,-9.12673 8.2325828,-21.39677 0.402108,-1.056 1.322872,-3.432 2.046142,-5.28 0.72327,-1.848 1.800289,-4.656 2.393376,-6.24 0.593088,-1.584 1.716783,-4.536 2.497102,-6.56 0.780318,-2.024 3.604738,-9.368 6.276488,-16.32 l 4.857728,-12.64 5.027554,-2.05026 c 6.759331,-2.75649 10.100829,-4.19208 10.375768,-4.45769 0.125518,-0.12126 0.325641,-1.60649 0.444718,-3.300505 0.206945,-2.944032 0.186784,-3.089462 -0.456595,-3.293663 -0.370205,-0.117498 -1.533133,-1.081708 -2.584285,-2.142688 -8.637058,-8.717812 -6.495477,-26.56774 3.771143,-31.432219 1.885566,-0.893409 2.432151,-1.002974 5.003534,-1.002974 2.6059,0 3.090779,0.100453 4.984226,1.032594 3.844584,1.892683 6.960293,6.048494 8.462434,11.287406 0.429772,1.498887 0.594273,3.108124 0.588805,5.76 -0.0087,4.20679 -0.660036,6.98578 -2.417399,10.313663 -0.997521,1.888984 -4.229763,5.565451 -5.466032,6.217258 -0.496299,0.261668 -0.537496,0.630368 -0.356052,3.186565 l 0.205185,2.890663 3.076052,0.90162 c 1.691829,0.49589 4.660052,1.37 6.596052,1.94247 1.936,0.57246 5.176001,1.50465 7.200001,2.07153 2.024,0.56688 3.846646,1.19394 4.050324,1.39346 0.203679,0.19952 0.607953,1.08277 0.898386,1.96277 0.593485,1.79823 1.663581,4.83585 5.298312,15.04 1.379211,3.872 3.030912,8.552 3.670445,10.4 0.639534,1.848 1.433184,4.08 1.763668,4.96 0.330483,0.88 1.481972,4.12 2.558865,7.2 1.076892,3.08 2.223838,6.32 2.548768,7.2 0.691855,1.87373 2.78286,7.80612 4.11171,11.66534 0.84111,2.44272 1.65952,3.67294 1.65952,2.49454 0,-0.2494 0.72206,-2.3134 1.60458,-4.58667 0.88252,-2.27326 2.26797,-5.86121 3.07879,-7.97321 3.03849,-7.91458 4.218,-10.98871 5.70929,-14.88 0.84313,-2.2 2.14505,-5.584 2.89316,-7.52 0.74811,-1.936 2.16686,-5.608 3.15277,-8.16 0.98592,-2.552 2.86096,-7.44567 4.16675,-10.87482 l 2.37418,-6.23483 4.91024,-2.0213 c 2.70063,-1.11172 6.20624,-2.55798 7.79024,-3.21393 l 2.88,-1.19263 0.24553,-3.191151 0.24552,-3.191153 -0.88552,-0.639635 c -3.93781,-2.844377 -6.31467,-6.686207 -7.32549,-11.84055 -1.7737,-9.044435 1.97857,-18.324792 8.75875,-21.662662 1.8218,-0.89687 2.34266,-1.004005 4.88121,-1.004005 2.56284,0 3.05038,0.102685 4.96669,1.046084 5.61473,2.76412 9.11331,9.288042 9.11331,16.993883 0,6.285239 -1.7052,10.68199 -5.68,14.645524 l -2.34547,2.338824 0.33273,1.799947 c 0.18301,0.989971 0.33274,2.269004 0.33274,2.842294 0,0.57329 0.13287,1.12446 0.29527,1.22483 0.29093,0.1798 15.61377,4.90784 18.10473,5.58642 2.16498,0.58978 1.77137,-0.0845 4.5001,7.70886 0.58542,1.672 1.7324,4.912 2.54883,7.2 1.36311,3.82004 3.69807,10.41319 6.40302,18.08 0.58991,1.672 1.73792,4.912 2.55113,7.2 0.81322,2.288 1.96126,5.528 2.55121,7.2 2.07888,5.89193 3.35424,9.46844 4.33615,12.16 0.54576,1.496 1.1442,3.26 1.32985,3.92 0.58577,2.08236 0.50837,2.21186 3.68174,-6.16 0.96734,-2.552 2.26714,-5.936 2.88845,-7.52 0.6213,-1.584 1.45259,-3.744 1.84731,-4.8 0.39471,-1.056 1.55123,-4.08 2.57004,-6.72 1.01881,-2.64 2.45679,-6.384 3.19551,-8.32 0.73872,-1.936 2.17601,-5.68 3.19398,-8.32 1.81359,-4.70335 3.00074,-7.80344 6.06581,-15.84 0.83905,-2.2 1.6901,-4.16285 1.89121,-4.36188 0.35171,-0.34808 2.09503,-1.11125 9.00566,-3.94239 1.76,-0.72104 3.93997,-1.65812 4.84437,-2.0824 l 1.64437,-0.77143 0.23404,-2.956905 0.23403,-2.956909 -0.91537,-0.664042 C 233.5439,92.253147 230.72,86.367082 230.72,79.602903 c 0,-7.706512 3.6869,-14.597402 9.23866,-17.267272 1.86723,-0.89796 2.44717,-1.020867 4.84134,-1.02603 2.39893,-0.0052 2.97864,0.115229 4.91109,1.020001 11.10542,5.199562 12.57996,25.108098 2.43066,32.817702 l -1.45825,1.107716 0.23638,2.474614 c 0.13,1.361036 0.35422,2.581536 0.49825,2.712226 0.14403,0.13068 3.71788,1.34817 7.94188,2.70553 4.224,1.35735 8.78512,2.82728 10.13583,3.2665 1.44284,0.46918 2.54226,1.01875 2.66536,1.33235 0.11525,0.29357 1.35637,3.62976 2.75806,7.41376 1.40169,3.784 2.90269,7.78256 3.33556,8.88568 0.43287,1.10313 2.37685,6.28713 4.31995,11.52 1.9431,5.23288 3.95184,10.59432 4.46386,11.91432 0.51202,1.32 1.78924,4.704 2.83826,7.52 1.04903,2.816 3.23172,8.648 4.85044,12.96 1.61871,4.312 3.08535,8.236 3.2592,8.72 l 0.31608,0.88 h 3.6487 3.6487 v 75.04 75.04 H 152.8 0 Z m 100.68882,-75.21182 c 0.20211,-0.5267 -18.06177,-31.18573 -18.578568,-31.1873 -0.169136,-5.1e-4 -0.206023,2.0305 -0.08861,4.87912 0.110624,2.684 0.364295,9.632 0.563712,15.44 0.199417,5.808 0.414774,10.74 0.47857,10.96 0.08911,0.30729 2.123209,0.4 8.776081,0.4 7.495208,0 8.685465,-0.0661 8.848815,-0.49182 z m 27.05735,0.0918 c 0.12797,-0.38015 -0.0124,-6.64316 -0.55615,-24.8224 -0.19311,-6.4558 -0.32275,-8.01655 -0.6379,-7.68 -0.21755,0.23232 -3.13672,5.3184 -6.48705,11.3024 -3.35033,5.984 -7.39058,13.17629 -8.97832,15.98287 -1.58775,2.80657 -2.8153,5.21857 -2.72789,5.36 0.0874,0.14142 4.45501,0.25713 9.70579,0.25713 7.35236,0 9.57783,-0.0919 9.68152,-0.4 z m 67.2417,0.16 c 0.2111,-0.34788 -18.74211,-31.82202 -18.98526,-31.52737 -0.11228,0.13605 -0.0875,2.76737 0.055,5.84737 0.14252,3.08 0.37651,9.99748 0.51997,15.37218 0.14346,5.37469 0.3687,9.94669 0.50053,10.16 0.17829,0.28849 2.48402,0.38782 9.00191,0.38782 4.81923,0 8.82777,-0.108 8.90787,-0.24 z m 28.84102,-1.52 c -0.038,-5.46737 -0.93576,-31.51959 -1.08614,-31.51771 -0.21361,0.003 -18.37241,32.198 -18.52711,32.84832 -0.087,0.36577 1.53577,0.42464 9.76,0.35405 L 223.84,178.72 Z M 33.791587,174.48 c -0.102534,-2.244 -0.260926,-7.176 -0.351983,-10.96 -0.09106,-3.784 -0.256257,-8.94555 -0.367111,-11.47011 -0.198675,-4.52459 -0.209445,-4.57712 -0.754502,-3.68 -0.40154,0.6609 -16.4466,28.12478 -17.497576,29.95011 -0.076,0.132 4.203365,0.24 9.509705,0.24 h 9.647891 z m 256.768423,3.89364 c 0,-0.1025 -3.87737,-6.8404 -8.61638,-14.9731 -4.73901,-8.13271 -8.79413,-15.17684 -9.01137,-15.65364 -1.02926,-2.25899 -1.11354,-0.60339 -0.61556,12.0931 0.16567,4.224 0.39874,10.164 0.51795,13.2 l 0.21673,5.52 h 8.75431 c 4.81487,0 8.75432,-0.0839 8.75432,-0.18636 z"
       id="path55"
       sodipodi:nodetypes="ccssssssscssssssssscssscsssssssssssssssssscsscccssssssscssssssssssssssssssssscccsssssscssssssssssssccccccccssssssssssssssssssssssssscsscssssssscsssssscss"
       inkscape:label="BLACK"
       sodipodi:insensitive="true" />
  </g>
  <g
     inkscape:groupmode="layer"
     id="layer1"
     inkscape:label="TEXT"
     sodipodi:insensitive="true"
     style="display:inline">
    <g
       id="DEMOCRACY"
       style="display:inline;fill:#ffffff;fill-opacity:1">
      <title
         id="title2">DEMOCRACY</title>
      <path
         style="font-size:32px;line-height:0.8;font-family:TypewriterSerial;-inkscape-font-specification:'TypewriterSerial, Normal ';text-align:center;letter-spacing:3.5px;text-anchor:middle;fill:#ffffff;fill-opacity:1;stroke-width:0"
         d="m 247.37412,386.61819 q 0,-0.96 0.128,-1.248 0.128,-0.32 0.448,-0.608 0.352,-0.32 0.768,-0.384 l 0.96,-0.096 q 1.92,0 1.92,2.144 v 0.256 l -0.192,3.04 0.224,2.464 0.032,0.32 q 0,1.152 -0.768,1.92 -0.8,0.704 -2.048,0.704 -1.024,0 -1.888,-0.576 -0.8,-0.608 -0.8,-1.408 l -0.032,-1.696 q 0,-0.416 -0.352,-0.864 -0.288,-0.48 -0.672,-0.672 l -0.96,-0.448 q -0.96,-0.352 -1.568,-0.352 -2.112,0 -3.328,1.824 -1.024,1.664 -1.024,5.44 0,3.712 1.152,5.472 1.152,1.76 3.68,1.76 1.184,0 2.112,-0.704 1.152,-0.864 1.152,-1.472 l 0.064,-1.952 q 0,-2.4 2.752,-2.4 1.024,0 1.632,0.224 0.608,0.192 0.992,0.832 0.32,0.64 0.32,2.464 0,7.744 -9.76,7.744 -4.576,0 -7.328,-2.656 -3.424,-3.264 -3.424,-9.28 0,-5.216 2.4,-8.448 1.248,-1.632 3.264,-2.688 1.024,-0.512 2.016,-0.768 0.992,-0.256 2.08,-0.256 1.152,0 2.976,0.544 1.056,0.288 1.536,0.576 0.48,0.288 1.536,1.248 z"
         id="path53" />
      <path
         id="path51"
         style="font-size:32px;line-height:0.8;font-family:TypewriterSerial;-inkscape-font-specification:'TypewriterSerial, Normal ';text-align:center;letter-spacing:3.5px;text-anchor:middle;fill:#ffffff;fill-opacity:1;stroke-width:0"
         d="m 211.39411,400.85819 q -0.32,0.096 -0.544,0.544 l -0.16,0.384 q -0.288,0.672 -0.288,1.248 0,0.576 0.416,0.576 l 1.184,-0.064 q 1.216,0 1.216,1.824 0,2.752 -2.24,2.752 l -0.896,-0.032 -3.2,-0.224 q -1.536,0 -2.912,0.224 l -1.248,0.096 q -2.272,0 -2.272,-2.624 0,-0.992 0.448,-1.632 0.448,-0.672 1.12,-0.672 l 1.248,0.16 q 0.768,0 1.28,-1.472 l 5.088,-14.592 q 0.544,-1.568 0.928,-2.048 0.64,-0.832 2.176,-0.832 l 0.192,0.032 2.176,0.16 2.496,-0.16 q 0.512,0 1.024,0.32 0.512,0.32 0.992,1.92 l 4.672,15.36 q 0.384,1.28 1.088,1.28 l 1.12,-0.128 h 0.128 q 1.44,0 1.44,2.336 0,2.592 -2.464,2.592 l -1.632,-0.128 -2.272,-0.192 q -0.992,0 -1.472,0.032 -0.448,0.032 -1.568,0.224 l -0.96,0.064 q -2.4,0 -2.4,-2.432 0,-2.048 1.152,-2.048 l 1.024,0.096 q 0.64,0 0.736,-0.736 l -0.16,-0.96 q -0.096,-0.352 -0.16,-0.48 l -0.064,-0.224 q -0.16,-0.576 -0.736,-0.576 h -0.224 l -2.56,0.032 z m 1.44,-4.096 h 2.592 l 0.416,-0.032 q 0.672,0 0.672,-0.352 l -0.064,-0.384 -1.312,-6.528 q -0.16,-1.088 -0.448,-1.088 -0.192,0 -0.416,1.12 l -0.16,0.448 -1.568,5.92 -0.128,0.512 q 0,0.288 0.416,0.384 z" />
      <path
         id="path49"
         style="font-size:32px;line-height:0.8;font-family:TypewriterSerial;-inkscape-font-specification:'TypewriterSerial, Normal ';text-align:center;letter-spacing:3.5px;text-anchor:middle;fill:#ffffff;fill-opacity:1;stroke-width:0"
         d="m 187.77946,395.89819 q 1.248,0.224 2.112,0.576 1.312,0.48 1.856,1.472 0.576,0.992 0.576,2.784 v 0.8 q 0,1.824 0.768,1.824 h 0.128 l 0.832,-0.096 h 0.128 q 0.608,0 1.088,0.704 0.512,0.672 0.512,1.664 0,1.056 -0.576,1.824 -0.576,0.736 -1.408,0.736 h -0.384 q -0.224,0 -0.512,-0.064 -0.288,-0.032 -0.736,-0.032 h -0.832 l -2.4,0.16 -0.288,0.032 q -2.624,0 -2.624,-4.096 v -0.32 l 0.064,-2.08 q 0,-3.072 -4.064,-3.072 -1.376,0 -1.568,0.768 l -0.064,0.896 v 1.216 q 0,2.048 0.864,2.048 l 0.64,-0.096 0.736,-0.096 q 0.832,0 1.376,0.704 0.544,0.672 0.544,1.76 0,2.528 -2.176,2.528 l -0.8,-0.032 -1.408,-0.192 -2.88,-0.128 q -1.984,0 -2.848,0.128 l -1.088,0.096 -1.152,0.128 q -2.176,0 -2.176,-2.592 0,-1.088 0.544,-1.728 0.544,-0.672 1.408,-0.672 0.448,0 0.704,0.064 l 0.64,0.128 q 0.864,0 0.864,-1.952 v -10.144 q 0,-2.08 -0.864,-2.08 l -0.608,0.128 -0.736,0.096 q -0.864,0 -1.44,-0.672 -0.512,-0.704 -0.512,-1.824 0,-2.528 2.176,-2.528 l 2.24,0.224 1.568,0.128 h 0.608 q 0.32,0 0.576,0 0.256,-0.032 0.448,-0.064 0.736,0 2.592,-0.096 1.888,-0.128 2.816,-0.128 h 1.792 q 2.112,0 3.424,0.32 1.312,0.288 2.528,1.344 1.92,1.632 1.92,4.352 0,2.144 -1.248,3.456 -1.024,1.056 -3.68,1.696 z m -7.392,-2.016 q 0,0.64 1.6,0.64 4.096,0 4.096,-2.784 0,-2.432 -3.328,-2.432 -2.368,0 -2.368,1.12 z" />
      <path
         style="font-size:32px;line-height:0.8;font-family:TypewriterSerial;-inkscape-font-specification:'TypewriterSerial, Normal ';text-align:center;letter-spacing:3.5px;text-anchor:middle;fill:#ffffff;fill-opacity:1;stroke-width:0"
         d="m 160.32339,386.71419 q 0,-0.96 0.128,-1.248 0.128,-0.32 0.448,-0.608 0.352,-0.32 0.768,-0.384 l 0.96,-0.096 q 1.92,0 1.92,2.144 v 0.256 l -0.192,3.04 0.224,2.464 0.032,0.32 q 0,1.152 -0.768,1.92 -0.8,0.704 -2.048,0.704 -1.024,0 -1.888,-0.576 -0.8,-0.608 -0.8,-1.408 l -0.032,-1.696 q 0,-0.416 -0.352,-0.864 -0.288,-0.48 -0.672,-0.672 l -0.96,-0.448 q -0.96,-0.352 -1.568,-0.352 -2.112,0 -3.328,1.824 -1.024,1.664 -1.024,5.44 0,3.712 1.152,5.472 1.152,1.76 3.68,1.76 1.184,0 2.112,-0.704 1.152,-0.864 1.152,-1.472 l 0.064,-1.952 q 0,-2.4 2.752,-2.4 1.024,0 1.632,0.224 0.608,0.192 0.992,0.832 0.32,0.64 0.32,2.464 0,7.744 -9.76,7.744 -4.576,0 -7.328,-2.656 -3.424,-3.264 -3.424,-9.28 0,-5.216 2.4,-8.448 1.248,-1.632 3.264,-2.688 1.024,-0.512 2.016,-0.768 0.992,-0.256 2.08,-0.256 1.152,0 2.976,0.544 1.056,0.288 1.536,0.576 0.48,0.288 1.536,1.248 z"
         id="path48" />
      <path
         id="path46"
         style="font-size:32px;line-height:0.8;font-family:TypewriterSerial;-inkscape-font-specification:'TypewriterSerial, Normal ';text-align:center;letter-spacing:3.5px;text-anchor:middle;fill:#ffffff;fill-opacity:1;stroke-width:0"
         d="m 117.18215,396.15419 q 0,-5.248 2.528,-8.256 3.008,-3.584 8.768,-3.584 5.408,0 8.352,3.072 2.944,3.04 2.944,8.736 0,4.736 -2.112,7.968 -1.536,2.336 -3.712,3.296 -2.144,0.928 -6.112,0.928 -5.696,0 -8.544,-4.224 -2.112,-3.168 -2.112,-7.936 z m 11.52,-6.816 q -2.592,0 -3.84,1.536 -1.216,1.504 -1.216,4.896 v 0.416 q 0,7.2 4.768,7.2 2.592,0 3.776,-1.728 1.184,-1.76 1.184,-5.44 0,-6.88 -4.672,-6.88 z" />
      <path
         style="font-size:32px;line-height:0.8;font-family:TypewriterSerial;-inkscape-font-specification:'TypewriterSerial, Normal ';text-align:center;letter-spacing:3.5px;text-anchor:middle;fill:#ffffff;fill-opacity:1;stroke-width:0"
         d="m 86.354153,391.09819 0.32,10.24 q 0,2.048 0.8,2.048 l 0.48,-0.128 0.512,-0.032 q 0.672,0 1.152,0.704 0.512,0.672 0.512,1.728 0,2.56 -2.208,2.56 l -0.736,-0.064 -1.184,-0.192 -2.368,-0.128 q -2.048,0 -2.912,0.128 l -1.088,0.096 -1.152,0.128 q -2.176,0 -2.176,-2.592 0,-1.088 0.544,-1.728 0.544,-0.672 1.408,-0.672 0.448,0 0.704,0.064 l 0.64,0.128 q 0.864,0 0.864,-2.048 v -10.048 q 0,-2.08 -0.864,-2.08 l -0.608,0.128 -0.736,0.096 q -0.864,0 -1.44,-0.672 -0.512,-0.704 -0.512,-1.824 0,-2.528 2.176,-2.528 l 0.832,0.032 q 2.72,0.352 4.224,0.352 l 1.472,-0.16 q 1.696,-0.16 4.128,-0.16 h 0.512 q 0.864,0 1.152,0.256 0.416,0.224 0.832,1.504 l 0.32,1.024 0.512,2.336 1.024,4.352 0.448,4.096 q 0.096,0.992 0.256,1.024 0.032,-0.128 0.096,-0.384 0.096,-0.256 0.16,-0.64 l 0.448,-4.096 q 0,-0.512 1.024,-4.352 l 0.512,-2.336 q 0.192,-1.056 0.48,-1.696 0.32,-0.672 0.704,-0.864 0.384,-0.224 1.12,-0.224 h 0.512 q 1.311997,0 2.335997,0.032 1.056,0.032 1.792,0.128 l 1.44,0.16 q 1.376,0 2.016,-0.064 0.64,-0.064 2.24,-0.288 l 0.832,-0.032 q 2.176,0 2.176,2.592 0,1.088 -0.544,1.76 -0.544,0.672 -1.408,0.672 l -0.704,-0.096 -0.64,-0.128 q -0.864,0 -0.864,2.08 v 10.048 q 0,2.048 0.864,2.048 l 0.64,-0.128 0.704,-0.064 q 0.832,0 1.376,0.704 0.576,0.672 0.576,1.76 0,2.528 -2.176,2.528 l -1.12,-0.096 -1.12,-0.128 -2.88,-0.128 q -1.664,0 -2.4,0.128 l -1.184,0.192 -0.736,0.064 q -2.239997,0 -2.239997,-2.592 0,-0.992 0.48,-1.696 0.512,-0.736 1.216,-0.736 l 0.543997,0.096 0.448,0.096 q 0.8,0 0.8,-2.048 l 0.416,-11.232 q 0,-0.64 -0.288,-0.704 -0.256,0 -0.384,0.704 l -0.16,0.832 -4.095997,14.944 q -0.224,0.96 -0.704,1.6 -0.448,0.608 -2.592,0.608 -2.08,0 -2.72,-2.208 l -4.256,-15.776 q -0.096,-0.704 -0.512,-0.704 -0.192,0 -0.192,0.576 v 0.224 z"
         id="path45" />
      <path
         style="font-size:32px;line-height:0.8;font-family:TypewriterSerial;-inkscape-font-specification:'TypewriterSerial, Normal ';text-align:center;letter-spacing:3.5px;text-anchor:middle;fill:#ffffff;fill-opacity:1;stroke-width:0"
         d="m 65.638141,401.01819 -0.192,-1.632 v -0.192 q 0,-1.056 0.8,-1.76 0.8,-0.704 2.016,-0.704 1.12,0 1.824,0.704 0.704,0.704 0.704,1.824 l -0.032,0.096 -0.256,3.648 q 0,0.448 0.032,1.056 0.032,0.576 0.16,1.6 l 0.064,0.704 q 0,1.76 -2.144,1.76 l -1.632,-0.096 q -0.096,0 -3.136,-0.128 -3.008,-0.096 -4.896,-0.096 -2.912,0 -4.672,0.032 -1.76,0.032 -2.368,0.128 l -1.088,0.096 -1.152,0.128 q -2.176,0 -2.176,-2.592 0,-1.088 0.544,-1.728 0.544,-0.672 1.408,-0.672 0.448,0 0.704,0.064 l 0.64,0.128 q 0.864,0 0.864,-2.048 v -10.048 q 0,-2.08 -0.864,-2.08 l -0.608,0.128 -0.736,0.096 q -0.864,0 -1.44,-0.672 -0.512,-0.704 -0.512,-1.824 0,-2.528 2.176,-2.528 l 1.152,0.128 1.088,0.096 q 1.408,0.192 4.352,0.192 l 3.104,-0.064 9.056,-0.256 0.864,0.096 q 1.056,0.192 1.056,1.6 v 0.192 l -0.192,3.552 0.256,2.784 q 0,0.928 -0.8,1.696 -0.768,0.672 -1.888,0.672 -1.056,0 -1.888,-0.736 -0.768,-0.768 -0.768,-1.824 0,-0.192 0.032,-0.512 0.032,-0.352 0.128,-0.768 l 0.16,-1.216 q 0,-1.28 -1.728,-1.28 l -2.048,0.128 -2.432,0.032 q -1.12,0 -1.312,1.248 v 2.432 q 0,0.992 0.8,0.992 0.768,0 1.12,-0.32 0.096,-0.128 0.16,-0.672 v -0.224 l -0.032,-0.64 -0.032,-0.384 q 0,-1.28 2.08,-1.28 0.736,0 1.28,0.384 0.576,0.352 0.576,0.896 l -0.192,4.032 0.192,4.192 q 0,0.736 -0.576,1.312 -0.608,0.512 -1.504,0.512 -0.8,0 -1.344,-0.512 -0.512,-0.512 -0.512,-1.312 l 0.032,-0.416 v -0.128 q 0,-1.408 -1.024,-1.408 -1.024,0 -1.024,1.152 v 2.784 q 0,1.248 0.448,1.568 0.48,0.32 1.792,0.32 3.616,0 4.48,-0.256 0.32,-0.064 0.672,-0.352 0.384,-0.288 0.384,-0.608 z"
         id="path44" />
      <path
         id="path19"
         style="font-size:32px;line-height:0.8;font-family:TypewriterSerial;-inkscape-font-specification:'TypewriterSerial, Normal ';text-align:center;letter-spacing:3.5px;text-anchor:middle;fill:#ffffff;fill-opacity:1;stroke-width:0"
         d="m 22.554166,391.29019 q 0,-2.08 -0.864,-2.08 l -0.608,0.128 -0.736,0.096 q -0.864,0 -1.44,-0.672 -0.512,-0.704 -0.512,-1.824 0,-2.528 2.176,-2.528 l 1.152,0.128 1.088,0.096 q 0.608,0.064 1.28,0.096 0.672,0.032 2.144,0.032 0.768,0 1.952,-0.032 1.216,-0.032 1.632,-0.032 l 2.272,-0.064 q 2.464,0 4.16,0.768 1.728,0.736 3.2,2.432 2.72,3.2 2.72,8.32 0,5.216 -2.816,8.544 -2.784,3.328 -7.168,3.328 -0.384,0 -2.048,-0.096 -1.632,-0.064 -2.56,-0.064 l -1.664,-0.032 h -0.864 q -1.376,0 -2.24,0.128 l -1.088,0.128 -1.152,0.096 q -2.176,0 -2.176,-2.592 0,-1.088 0.544,-1.728 0.544,-0.672 1.408,-0.672 0.448,0 0.704,0.064 l 0.64,0.128 q 0.864,0 0.864,-2.048 z m 8.032,-2.176 q -1.024,0 -1.44,0.416 -0.384,0.416 -0.384,1.568 v 10.432 q 0,1.536 0.736,1.92 0.256,0.128 0.544,0.192 0.288,0.064 0.736,0.064 1.312,0 2.496,-0.768 1.184,-0.8 1.728,-2.112 0.32,-0.8 0.512,-1.92 0.192,-1.12 0.192,-2.464 0,-4.352 -2.112,-6.176 -1.344,-1.152 -3.008,-1.152 z" />
      <path
         style="font-size:32px;line-height:0.8;font-family:TypewriterSerial;-inkscape-font-specification:'TypewriterSerial, Normal ';text-align:center;letter-spacing:4.43px;text-anchor:middle;fill:#ffffff;fill-opacity:1;stroke-width:0"
         d="m 266.2341,401.81819 v -1.344 l -0.064,-0.416 -0.096,-0.288 -0.32,-0.64 -5.088,-8 -0.672,-0.992 q -0.48,-0.544 -1.024,-0.544 h -0.16 l -1.184,0.096 q -0.704,0 -1.152,-0.64 -0.448,-0.64 -0.448,-1.6 0,-2.592 2.528,-2.592 l 0.992,0.032 2.656,0.16 q 0.608,0 1.216,0 0.576,-0.096 0.832,-0.128 l 1.92,-0.16 q 2.272,0 2.272,2.624 0,1.12 -0.992,1.6 -0.48,0.256 -0.544,0.704 l 0.096,0.608 0.416,0.832 1.696,3.264 0.288,0.704 0.224,-0.704 2.112,-4.096 0.16,-0.544 q 0,-0.384 -0.608,-0.768 -0.992,-0.384 -0.992,-1.6 0,-2.624 2.272,-2.624 0.288,0 0.768,0.032 0.48,0.032 1.184,0.128 l 2.016,0.128 q 0.448,0 1.12,-0.032 0.672,-0.032 1.568,-0.128 l 0.992,-0.032 q 2.496,0 2.496,2.592 0,0.96 -0.448,1.6 -0.448,0.64 -1.152,0.64 l -0.352,-0.032 -0.832,-0.064 h -0.16 l -0.48,0.096 q -0.352,0.128 -1.216,1.44 l -5.504,8.928 -0.064,0.416 v 1.344 l -0.032,0.928 q 0,0.96 0.992,0.96 l 0.64,-0.064 q 0.288,-0.096 0.736,-0.096 0.8,0 1.344,0.608 0.576,0.608 0.576,1.504 0,2.688 -2.368,2.688 l -1.088,-0.096 q -1.696,-0.192 -3.904,-0.192 -2.176,0 -3.968,0.192 l -1.088,0.096 q -2.368,0 -2.368,-2.688 0,-0.928 0.544,-1.504 0.544,-0.608 1.376,-0.608 l 0.8,0.096 0.576,0.064 q 0.992,0 0.992,-0.96 z"
         id="path20" />
    </g>
    <g
       id="EQUALS"
       style="display:inline;fill:#fcaf17;fill-opacity:1">
      <rect
         style="fill:#fcaf17;fill-opacity:1;stroke-width:0"
         id="rect30"
         width="15.0892"
         height="4.0161371"
         x="265.25327"
         y="350.55148" />
      <rect
         style="fill:#fcaf17;fill-opacity:1;stroke-width:0"
         id="rect31"
         width="15.0892"
         height="4.0161371"
         x="265.25327"
         y="356.44601" />
    </g>
    <g
       id="ME"
       style="fill:#ffffff;fill-opacity:1">
      <path
         style="font-size:32px;line-height:0.8;font-family:TypewriterSerial;-inkscape-font-specification:'TypewriterSerial, Normal ';text-align:center;letter-spacing:3.5px;text-anchor:middle;fill:#ffffff;fill-opacity:1;stroke-width:0"
         d="m 235.01069,360.45215 -0.192,-1.632 v -0.192 q 0,-1.056 0.8,-1.76 0.8,-0.704 2.016,-0.704 1.12,0 1.824,0.704 0.704,0.704 0.704,1.824 l -0.032,0.096 -0.256,3.648 q 0,0.448 0.032,1.056 0.032,0.576 0.16,1.6 l 0.064,0.704 q 0,1.76 -2.144,1.76 l -1.632,-0.096 q -0.096,0 -3.136,-0.128 -3.008,-0.096 -4.896,-0.096 -2.912,0 -4.672,0.032 -1.76,0.032 -2.368,0.128 l -1.088,0.096 -1.152,0.128 q -2.176,0 -2.176,-2.592 0,-1.088 0.544,-1.728 0.544,-0.672 1.408,-0.672 0.448,0 0.704,0.064 l 0.64,0.128 q 0.864,0 0.864,-2.048 v -10.048 q 0,-2.08 -0.864,-2.08 l -0.608,0.128 -0.736,0.096 q -0.864,0 -1.44,-0.67201 -0.512,-0.704 -0.512,-1.824 0,-2.528 2.176,-2.528 l 1.152,0.128 1.088,0.096 q 1.408,0.192 4.352,0.192 l 3.104,-0.064 9.056,-0.256 0.864,0.096 q 1.056,0.192 1.056,1.6 v 0.192 l -0.192,3.55201 0.256,2.784 q 0,0.928 -0.8,1.696 -0.768,0.672 -1.888,0.672 -1.056,0 -1.888,-0.736 -0.768,-0.768 -0.768,-1.824 0,-0.192 0.032,-0.512 0.032,-0.352 0.128,-0.768 l 0.16,-1.216 q 0,-1.28 -1.728,-1.28 l -2.048,0.128 -2.432,0.032 q -1.12,0 -1.312,1.248 v 2.432 q 0,0.992 0.8,0.992 0.768,0 1.12,-0.32 0.096,-0.128 0.16,-0.672 v -0.224 l -0.032,-0.64 -0.032,-0.384 q 0,-1.28 2.08,-1.28 0.736,0 1.28,0.384 0.576,0.352 0.576,0.896 l -0.192,4.032 0.192,4.192 q 0,0.736 -0.576,1.312 -0.608,0.512 -1.504,0.512 -0.8,0 -1.344,-0.512 -0.512,-0.512 -0.512,-1.312 l 0.032,-0.416 v -0.128 q 0,-1.408 -1.024,-1.408 -1.024,0 -1.024,1.152 v 2.784 q 0,1.248 0.448,1.568 0.48,0.32 1.792,0.32 3.616,0 4.48,-0.256 0.32,-0.064 0.672,-0.352 0.384,-0.288 0.384,-0.608 z"
         id="path21" />
      <path
         style="font-size:32px;line-height:0.8;font-family:TypewriterSerial;-inkscape-font-specification:'TypewriterSerial, Normal ';text-align:center;letter-spacing:3.5px;text-anchor:middle;fill:#ffffff;fill-opacity:1;stroke-width:0"
         d="m 183.23269,350.50015 0.32,10.24 q 0,2.048 0.8,2.048 l 0.48,-0.128 0.512,-0.032 q 0.672,0 1.152,0.704 0.512,0.672 0.512,1.728 0,2.56 -2.208,2.56 l -0.736,-0.064 -1.184,-0.192 -2.368,-0.128 q -2.048,0 -2.912,0.128 l -1.088,0.096 -1.152,0.128 q -2.176,0 -2.176,-2.592 0,-1.088 0.544,-1.728 0.544,-0.672 1.408,-0.672 0.448,0 0.704,0.064 l 0.64,0.128 q 0.864,0 0.864,-2.048 v -10.048 q 0,-2.08 -0.864,-2.08 l -0.608,0.128 -0.736,0.096 q -0.864,0 -1.44,-0.672 -0.512,-0.704 -0.512,-1.824 0,-2.528 2.176,-2.528 l 0.832,0.032 q 2.72,0.352 4.224,0.352 l 1.472,-0.16 q 1.696,-0.16 4.128,-0.16 h 0.512 q 0.864,0 1.152,0.256 0.416,0.224 0.832,1.504 l 0.32,1.024 0.512,2.336 1.024,4.352 0.448,4.096 q 0.096,0.992 0.256,1.024 0.032,-0.128 0.096,-0.384 0.096,-0.256 0.16,-0.64 l 0.448,-4.096 q 0,-0.512 1.024,-4.352 l 0.512,-2.336 q 0.192,-1.056 0.48,-1.696 0.32,-0.672 0.704,-0.864 0.384,-0.224 1.12,-0.224 h 0.512 q 1.312,0 2.336,0.032 1.056,0.032 1.792,0.128 l 1.44,0.16 q 1.376,0 2.016,-0.064 0.64,-0.064 2.24,-0.288 l 0.832,-0.032 q 2.176,0 2.176,2.592 0,1.088 -0.544,1.76 -0.544,0.672 -1.408,0.672 l -0.704,-0.096 -0.64,-0.128 q -0.864,0 -0.864,2.08 v 10.048 q 0,2.048 0.864,2.048 l 0.64,-0.128 0.704,-0.064 q 0.832,0 1.376,0.704 0.576,0.672 0.576,1.76 0,2.528 -2.176,2.528 l -1.12,-0.096 -1.12,-0.128 -2.88,-0.128 q -1.664,0 -2.4,0.128 l -1.184,0.192 -0.736,0.064 q -2.24,0 -2.24,-2.592 0,-0.992 0.48,-1.696 0.512,-0.736 1.216,-0.736 l 0.544,0.096 0.448,0.096 q 0.8,0 0.8,-2.048 l 0.416,-11.232 q 0,-0.64 -0.288,-0.704 -0.256,0 -0.384,0.704 l -0.16,0.832 -4.096,14.944 q -0.224,0.96 -0.704,1.6 -0.448,0.608 -2.592,0.608 -2.08,0 -2.72,-2.208 l -4.256,-15.776 q -0.096,-0.704 -0.512,-0.704 -0.192,0 -0.192,0.576 v 0.224 z"
         id="path18" />
    </g>
    <path
       style="font-size:25.3333px;line-height:0.8;font-family:TypewriterSerial;-inkscape-font-specification:'TypewriterSerial, Normal ';text-align:center;letter-spacing:3.5px;text-anchor:middle;display:inline;fill:#fcaf17;fill-opacity:1;stroke-width:0"
       d="m 140.0978,359.63101 -0.532,0.70933 -0.10133,0.32933 q 0,0.228 0.456,0.532 0.78533,0.48134 0.78533,1.52 0,1.748 -1.79866,1.748 l -0.608,-0.076 -1.79867,-0.12667 -1.24133,0.0507 -1.24133,0.076 q -2.204,0 -2.204,-2.052 0,-0.836 0.35467,-1.39333 0.35467,-0.55733 0.96267,-0.65867 l 0.50666,-0.076 q 0.152,0 0.456,-0.228 0.076,-0.0253 0.25333,-0.20266 0.20267,-0.17733 0.304,-0.304 l 3.116,-4.408 -2.22933,-3.97732 q -0.70933,-1.26667 -1.46933,-1.34267 l -0.70933,-0.0253 q -0.532,0 -0.912,-0.532 -0.32934,-0.58267 -0.32934,-1.39333 0,-0.912 0.55734,-1.46933 0.55733,-0.55734 1.49466,-0.55734 0.228,0 0.38,0 0.17733,0 0.55733,0.10134 l 1.77333,0.12666 1.292,-0.10133 1.292,-0.12667 q 0.836,0 1.368,0.55734 0.532,0.532 0.532,1.49466 0,0.73467 -0.76,1.26667 -0.43067,0.228 -0.43067,0.65866 l 0.076,0.27867 0.50667,0.836 1.11466,2.38133 1.14,-2.38133 0.48134,-0.836 q 0.076,-0.12667 0.076,-0.27867 0,-0.38 -0.43067,-0.65866 -0.73467,-0.456 -0.73467,-1.26667 0,-0.912 0.50667,-1.46933 0.50667,-0.58267 1.368,-0.58267 0.20266,0 0.532,0.0253 0.32933,0.0253 0.76,0.10133 l 1.29199,0.10133 q 0.25334,0 0.684,-0.0253 0.456,-0.0253 1.08934,-0.10133 l 0.93733,-0.10134 q 0.912,0 1.46933,0.55734 0.58266,0.55733 0.58266,1.46933 0,1.92533 -1.24133,1.92533 l -0.70933,0.0253 q -0.73467,0 -1.46933,1.34267 l -2.22933,3.97732 3.14133,4.408 q 0.20266,0.304 0.532,0.532 l 0.48133,0.20266 0.48133,0.076 q 0.55734,0.076 0.93733,0.684 0.38,0.532 0.38,1.368 0,2.052 -2.20399,2.052 l -1.24133,-0.076 -1.24134,-0.0507 q -0.228,0 -0.684,0.0253 -0.43066,0.0253 -1.08933,0.10133 l -0.63333,0.076 q -1.77333,0 -1.77333,-1.748 0,-1.01333 0.76,-1.52 0.456,-0.27866 0.456,-0.532 0,-0.20266 -0.10134,-0.32933 l -0.53199,-0.70933 -1.77334,-2.76133 z"
       id="X" />
    <g
       id="YOU"
       style="display:inline;fill:#000000;fill-opacity:0">
      <path
         style="font-size:32px;line-height:0.8;font-family:TypewriterSerial;-inkscape-font-specification:'TypewriterSerial, Normal ';text-align:center;letter-spacing:3.5px;text-anchor:middle;fill:#ffffff;fill-opacity:1;stroke-width:0"
         d="m 91.704963,343.74815 0.8,-0.032 q 2.207999,0 2.207999,2.56 0,0.928 -0.48,1.696 -0.511999,0.704 -1.151999,0.704 l -0.352,-0.032 -0.48,-0.128 q -0.8,0 -0.8,2.08 v 8.096 q 0,2.08 0.864,3.008 0.896,0.832 2.975999,0.832 1.728,0 2.656,-0.8 0.928,-0.832 0.928,-3.04 v -8.096 q 0,-2.08 -0.8,-2.08 -0.224,0 -0.48,0.128 l -0.352,0.032 q -0.672,0 -1.152,-0.704 -0.48,-0.736 -0.48,-1.728 0,-2.528 2.208,-2.528 l 0.8,0.032 1.28,0.192 2.367998,0.128 h 0.384 q 1.44,0 2.176,-0.128 l 1.12,-0.128 1.12,-0.096 q 2.176,0 2.176,2.592 0,1.088 -0.544,1.76 -0.544,0.672 -1.376,0.672 l -0.736,-0.096 -0.64,-0.128 q -0.864,0 -0.864,2.08 v 8.416 q 0,2.848 -0.64,4.32 -0.576,1.472 -2.24,2.624 -1.216,0.832 -2.943998,1.248 -1.728,0.416 -4.096,0.416 -4.479999,0 -7.007999,-1.664 -1.536,-1.024 -2.272,-2.592 -0.64,-1.568 -0.64,-4.352 v -8.416 q 0,-2.08 -0.864,-2.08 l -0.608,0.128 -0.736,0.096 q -0.864,0 -1.44,-0.672 -0.512,-0.704 -0.512,-1.824 0,-2.528 2.176,-2.528 l 1.152,0.096 1.088,0.128 2.56,0.128 h 0.352 q 1.28,0 2.016,-0.128 z"
         id="path29" />
      <path
         id="path27"
         style="font-size:32px;line-height:0.8;font-family:TypewriterSerial;-inkscape-font-specification:'TypewriterSerial, Normal ';text-align:center;letter-spacing:3.5px;text-anchor:middle;fill:#ffffff;fill-opacity:1;stroke-width:0"
         d="m 50.736977,355.46015 q 0,-5.248 2.528,-8.256 3.008,-3.584 8.768,-3.584 5.408,0 8.352,3.072 2.944,3.04 2.944,8.736 0,4.736 -2.112,7.968 -1.536,2.336 -3.712,3.296 -2.144,0.928 -6.112,0.928 -5.696,0 -8.544,-4.224 -2.112,-3.168 -2.112,-7.936 z m 11.52,-6.816 q -2.592,0 -3.84,1.536 -1.216,1.504 -1.216,4.896 v 0.416 q 0,7.2 4.768,7.2 2.592,0 3.776,-1.728 1.184,-1.76 1.184,-5.44 0,-6.88 -4.672,-6.88 z" />
      <path
         style="font-size:32px;line-height:0.8;font-family:TypewriterSerial;-inkscape-font-specification:'TypewriterSerial, Normal ';text-align:center;letter-spacing:3.5px;text-anchor:middle;fill:#ffffff;fill-opacity:1;stroke-width:0"
         d="m 27.539702,360.88415 v -1.344 l -0.064,-0.416 -0.096,-0.288 -0.32,-0.64 -5.088,-8 -0.672,-0.992 q -0.48,-0.544 -1.024,-0.544 h -0.16 l -1.184,0.096 q -0.704,0 -1.152,-0.64 -0.448,-0.64 -0.448,-1.6 0,-2.592 2.528,-2.592 l 0.992,0.032 2.656,0.16 q 0.608,0 1.216,0 0.576,-0.096 0.832,-0.128 l 1.92,-0.16 q 2.272,0 2.272,2.624 0,1.12 -0.992,1.6 -0.48,0.256 -0.544,0.704 l 0.096,0.608 0.416,0.832 1.696,3.264 0.288,0.704 0.224,-0.704 2.112,-4.096 0.16,-0.544 q 0,-0.384 -0.608,-0.768 -0.992,-0.384 -0.992,-1.6 0,-2.624 2.272,-2.624 0.288,0 0.768,0.032 0.48,0.032 1.184,0.128 l 2.016,0.128 q 0.448,0 1.12,-0.032 0.672,-0.032 1.568,-0.128 l 0.992,-0.032 q 2.496,0 2.496,2.592 0,0.96 -0.448,1.6 -0.448,0.64 -1.152,0.64 l -0.352,-0.032 -0.832,-0.064 h -0.16 l -0.48,0.096 q -0.352,0.128 -1.216,1.44 l -5.504,8.928 -0.064,0.416 v 1.344 l -0.032,0.928 q 0,0.96 0.992,0.96 l 0.64,-0.064 q 0.288,-0.096 0.736,-0.096 0.8,0 1.344,0.608 0.576,0.608 0.576,1.504 0,2.688 -2.368,2.688 l -1.088,-0.096 q -1.696,-0.192 -3.904,-0.192 -2.176,0 -3.968,0.192 l -1.088,0.096 q -2.368,0 -2.368,-2.688 0,-0.928 0.544,-1.504 0.544,-0.608 1.376,-0.608 l 0.8,0.096 0.576,0.064 q 0.992,0 0.992,-0.96 z"
         id="path16" />
    </g>
    <g
       id="MULTIPLIER"
       style="fill:#000000;fill-opacity:0">
      <path
         id="path28"
         style="font-size:58.6667px;line-height:0.8;font-family:'Franklin Gothic Demi Cond';-inkscape-font-specification:'Franklin Gothic Demi Cond, Normal';text-align:center;letter-spacing:0px;text-anchor:middle;fill:#ffffff;fill-opacity:0.941176;stroke-width:0"
         d="m 263.1908,276.02463 h 13.56591 q 3.95277,0 6.03984,0.3114 2.11868,0.28544 4.269,1.60887 2.15029,1.29748 3.35195,3.58106 1.23325,2.25761 1.23325,5.08613 0,6.64311 -6.07145,9.34188 l 7.93717,15.49194 h -10.34045 l -5.75525,-14.01282 h -4.74332 v 14.01282 h -9.48665 z m 9.48665,5.73487 v 9.93872 h 4.17413 q 5.56551,0 5.56551,-5.11208 0,-1.76458 -0.82219,-2.88041 -0.82217,-1.14179 -1.92895,-1.53104 -1.07515,-0.41519 -3.19383,-0.41519 z" />
      <path
         style="font-size:58.6667px;line-height:0.8;font-family:'Franklin Gothic Demi Cond';-inkscape-font-specification:'Franklin Gothic Demi Cond, Normal';text-align:center;letter-spacing:0px;text-anchor:middle;fill:#ffffff;fill-opacity:0.941176;stroke-width:0"
         d="m 232.39989,276.02463 h 26.2464 v 6.07221 h -16.75976 v 8.22605 h 13.02834 v 6.09817 h -13.02834 v 8.69313 h 16.75976 v 6.33172 h -26.2464 z"
         id="path26" />
      <path
         style="font-size:58.6667px;line-height:0.8;font-family:'Franklin Gothic Demi Cond';-inkscape-font-specification:'Franklin Gothic Demi Cond, Normal';text-align:center;letter-spacing:0px;text-anchor:middle;fill:#ffffff;fill-opacity:0.941176;stroke-width:0"
         d="m 216.20451,276.02463 h 9.48665 v 35.42128 h -9.48665 z"
         id="path25" />
      <path
         style="font-size:58.6667px;line-height:0.8;font-family:'Franklin Gothic Demi Cond';-inkscape-font-specification:'Franklin Gothic Demi Cond, Normal';text-align:center;letter-spacing:0px;text-anchor:middle;fill:#ffffff;fill-opacity:0.941176;stroke-width:0"
         d="m 190.30866,276.02463 h 9.48665 v 28.77817 h 13.91376 v 6.64311 h -23.40041 z"
         id="path24" />
      <path
         id="path22"
         style="font-size:58.6667px;line-height:0.8;font-family:'Franklin Gothic Demi Cond';-inkscape-font-specification:'Franklin Gothic Demi Cond, Normal';text-align:center;letter-spacing:0px;text-anchor:middle;fill:#ffffff;fill-opacity:0.941176;stroke-width:0"
         d="m 158.34482,276.74412 h 12.4275 q 5.66037,0 8.75934,0.77848 3.1306,0.7785 5.2493,3.52916 2.11868,2.72471 2.11868,6.77286 0,3.89245 -1.7076,6.43551 -1.70759,2.54308 -4.74333,3.68485 -3.0041,1.11585 -9.2653,1.11585 h -3.35195 v 13.10457 h -9.48664 z m 9.48664,5.73487 v 10.48366 h 2.94086 q 3.88953,0 4.99631,-1.47913 1.1384,-1.47913 1.1384,-3.84055 0,-1.99812 -0.88543,-3.21775 -0.85379,-1.24559 -2.02381,-1.58293 -1.1384,-0.3633 -3.22547,-0.3633 z" />
      <path
         style="font-size:58.6667px;line-height:0.8;font-family:'Franklin Gothic Demi Cond';-inkscape-font-specification:'Franklin Gothic Demi Cond, Normal';text-align:center;letter-spacing:0px;text-anchor:middle;fill:#ffffff;fill-opacity:0.941176;stroke-width:0"
         d="m 142.22573,276.74412 h 9.48665 v 35.42128 h -9.48665 z"
         id="path17" />
      <path
         style="font-size:58.6667px;line-height:0.8;font-family:'Franklin Gothic Demi Cond';-inkscape-font-specification:'Franklin Gothic Demi Cond, Normal';text-align:center;letter-spacing:0px;text-anchor:middle;fill:#ffffff;fill-opacity:0.941176;stroke-width:0"
         d="m 112.10284,276.74412 h 26.91048 v 6.64311 h -8.82259 v 28.77817 h -9.48666 v -28.77817 h -8.60123 z"
         id="path15" />
      <path
         style="font-size:58.6667px;line-height:0.8;font-family:'Franklin Gothic Demi Cond';-inkscape-font-specification:'Franklin Gothic Demi Cond, Normal';text-align:center;letter-spacing:0px;text-anchor:middle;fill:#ffffff;fill-opacity:0.941176;stroke-width:0"
         d="m 93.032017,276.02463 h 9.486653 v 28.77817 h 13.91376 v 6.64311 H 93.032017 Z"
         id="path14" />
      <path
         style="font-size:58.6667px;line-height:0.8;font-family:'Franklin Gothic Demi Cond';-inkscape-font-specification:'Franklin Gothic Demi Cond, Normal';text-align:center;letter-spacing:0px;text-anchor:middle;fill:#ffffff;fill-opacity:0.941176;stroke-width:0"
         d="m 58.016478,276.47165 h 9.486653 v 20.24073 q 0,4.28169 0.474333,5.96842 0.474333,1.68673 1.960574,2.56902 1.517865,0.85634 3.699795,0.85634 2.371663,0 3.763039,-0.96014 1.391376,-0.96014 1.707598,-2.54306 0.316221,-1.58294 0.316221,-5.89058 v -20.24073 h 7.937166 v 19.92934 q 0,5.96841 -0.853799,8.90072 -0.822176,2.93231 -4.268993,5.03424 -3.415195,2.10192 -9.423408,2.10192 -5.628747,0 -8.85421,-1.53102 -3.225462,-1.55698 -4.585215,-4.3336 -1.359754,-2.80256 -1.359754,-9.86087 z"
         id="path13" />
      <path
         style="font-size:58.6667px;line-height:0.8;font-family:'Franklin Gothic Demi Cond';-inkscape-font-specification:'Franklin Gothic Demi Cond, Normal';text-align:center;letter-spacing:0px;text-anchor:middle;fill:#ffffff;fill-opacity:0.941176;stroke-width:0"
         d="m 12.147094,277.01659 h 13.913757 l 6.103079,21.87556 6.862013,-21.87556 h 13.502669 v 35.42128 h -8.885831 v -29.66046 l -8.822587,29.66046 H 27.92656 l -8.063656,-29.66046 v 29.66046 h -7.71581 z"
         id="text1-4" />
    </g>
    <g
       id="g45"
       inkscape:label="FORCE">
      <path
         style="font-size:90.6667px;line-height:0.8;font-family:'Franklin Gothic Demi';-inkscape-font-specification:'Franklin Gothic Demi, Normal';text-align:center;letter-spacing:0px;text-anchor:middle;fill:#ffffff;fill-opacity:0.941176;stroke-width:0"
         d="m 290.97427,208.60182 h -28.82032 v 12.39584 h 22.66667 v 11.37761 h -22.66667 v 13.19271 h 28.82032 v 11.95313 H 247.76592 V 197.0914 h 43.20835 z"
         id="path12" />
      <path
         style="font-size:90.6667px;line-height:0.8;font-family:'Franklin Gothic Demi';-inkscape-font-specification:'Franklin Gothic Demi, Normal';text-align:center;letter-spacing:0px;text-anchor:middle;fill:#ffffff;fill-opacity:0.941176;stroke-width:0"
         d="m 236.44521,219.58099 -14.83074,0.92969 q -0.3099,-12.79428 -9.96094,-12.79428 -11.06772,0 -11.06772,19.70053 0,11.37761 3.01042,15.45053 3.01042,4.02865 8.41146,4.02865 8.76563,0 10.71355,-11.42188 l 13.72397,0.84114 q -1.32813,10.84636 -8.10157,16.51303 -6.72917,5.6224 -16.51303,5.6224 -11.9974,0 -19.52344,-8.27865 -7.48178,-8.27865 -7.48178,-22.88803 0,-13.67969 7.26042,-22.40105 7.26042,-8.72136 19.83334,-8.72136 21.78126,0 24.52606,23.41928 z"
         id="path11" />
      <path
         id="path9"
         style="font-size:90.6667px;line-height:0.8;font-family:'Franklin Gothic Demi';-inkscape-font-specification:'Franklin Gothic Demi, Normal';text-align:center;letter-spacing:0px;text-anchor:middle;fill:#ffffff;fill-opacity:0.941176;stroke-width:0"
         d="m 141.94629,233.57058 v 23.95053 H 127.69107 V 197.0914 h 26.56251 q 7.34896,0 11.77605,1.72656 4.47135,1.68229 7.39323,6.24219 2.92188,4.5599 2.92188,10.13803 0,10.89063 -10.49219,15.62761 l 11.15625,26.69532 h -15.62761 l -9.29688,-23.95053 z m 0,-25.72136 v 15.40625 h 8.67708 q 4.25,0 6.15365,-0.57552 1.94792,-0.61979 3.45313,-2.65625 1.50521,-2.08073 1.50521,-4.73698 0,-2.52344 -1.50521,-4.51563 -1.50521,-1.99219 -3.27605,-2.4349 -1.77083,-0.48697 -6.64062,-0.48697 z" />
      <path
         id="path7"
         style="font-size:90.6667px;line-height:0.8;font-family:'Franklin Gothic Demi';-inkscape-font-specification:'Franklin Gothic Demi, Normal';text-align:center;letter-spacing:0px;text-anchor:middle;fill:#ffffff;fill-opacity:0.941176;stroke-width:0"
         d="m 90.401177,258.4508 q -12.21876,0 -18.90365,-9.16407 -6.6849,-9.16406 -6.6849,-22.17969 0,-13.23699 6.77344,-22.09116 6.77344,-8.85417 19.30209,-8.85417 12.661453,0 19.080733,9.47396 6.46354,9.42969 6.46354,21.60418 0,13.14844 -6.64063,22.17969 -6.64063,9.03126 -19.390623,9.03126 z m 0.39844,-50.7344 q -11.15626,0 -11.15626,19.56772 0,19.61199 11.15626,19.61199 10.802083,0 10.802083,-19.56772 0,-19.61199 -10.802083,-19.61199 z" />
      <path
         style="font-size:90.6667px;line-height:0.8;font-family:'Franklin Gothic Demi';-inkscape-font-specification:'Franklin Gothic Demi, Normal';text-align:center;letter-spacing:0px;text-anchor:middle;fill:#ffffff;fill-opacity:0.941176;stroke-width:0"
         d="m 60.687133,209.04453 h -28.28907 v 13.54688 h 22.35678 v 11.28907 h -22.35678 v 23.64063 H 17.700133 V 197.0914 h 42.987 z"
         id="text1" />
    </g>
  </g>
</svg>
